<svg width="101" height="116" viewBox="0 0 101 116" fill="none" xmlns="http://www.w3.org/2000/svg">
<g filter="url(#filter0_d_10_5631)">
<path d="M50.4452 4.00002C76.1793 3.97336 94.8313 26.9553 92.7413 51.9916L92.6262 53.1857C90.6132 71.5424 80.3815 84.2047 70.9689 92.1316C66.2551 96.1014 61.6749 98.9502 58.2668 100.811C56.5585 101.744 55.1321 102.435 54.115 102.901C53.6064 103.133 53.1991 103.31 52.9085 103.433C52.7631 103.494 52.6463 103.542 52.5611 103.577C52.5189 103.594 52.484 103.607 52.4573 103.618C52.4442 103.623 52.4327 103.628 52.4234 103.631C52.4187 103.633 52.4137 103.635 52.4101 103.636L52.4049 103.639L50.4893 98.7386L52.4008 103.641C51.1008 104.148 49.6522 104.117 48.3744 103.556L50.4893 98.7386L48.3703 103.554L48.3651 103.552C48.3616 103.551 48.3574 103.549 48.3528 103.547C48.3432 103.543 48.3309 103.537 48.3168 103.531C48.2887 103.518 48.2513 103.502 48.2058 103.481C48.1144 103.44 47.9889 103.381 47.8307 103.307C47.5141 103.158 47.0675 102.942 46.5102 102.659C45.3962 102.094 43.8335 101.259 41.9719 100.145C38.2587 97.9244 33.2988 94.5642 28.3203 90.0002C18.393 80.8996 8.00005 66.6178 8 46.8203C8 23.2369 26.9621 4.02452 50.4452 4.00002Z" fill="white"/>
<path d="M87.3958 52.6121C83.7605 85.7632 50.4892 98.7383 50.4892 98.7383C50.4892 98.7383 13.2617 82.4011 13.2617 46.8201C13.2617 26.097 29.9148 9.2831 50.4508 9.26175C73.1164 9.23827 89.8883 29.8839 87.3958 52.6121Z" fill="#E03841"/>
<path d="M50.4515 66.9551C61.7751 66.9551 70.9548 57.7755 70.9548 46.4518C70.9548 35.1282 61.7751 25.9485 50.4515 25.9485C39.1278 25.9485 29.9482 35.1282 29.9482 46.4518C29.9482 57.7755 39.1278 66.9551 50.4515 66.9551Z" fill="white"/>
</g>
<defs>
<filter id="filter0_d_10_5631" x="-8" y="0" width="116" height="116" filterUnits="userSpaceOnUse" color-interpolation-filters="sRGB">
<feFlood flood-opacity="0" result="BackgroundImageFix"/>
<feColorMatrix in="SourceAlpha" type="matrix" values="0 0 0 0 0 0 0 0 0 0 0 0 0 0 0 0 0 0 127 0" result="hardAlpha"/>
<feOffset dy="4"/>
<feGaussianBlur stdDeviation="4"/>
<feComposite in2="hardAlpha" operator="out"/>
<feColorMatrix type="matrix" values="0 0 0 0 0 0 0 0 0 0 0 0 0 0 0 0 0 0 0.25 0"/>
<feBlend mode="normal" in2="BackgroundImageFix" result="effect1_dropShadow_10_5631"/>
<feBlend mode="normal" in="SourceGraphic" in2="effect1_dropShadow_10_5631" result="shape"/>
</filter>
</defs>
</svg>
